# Blender v2.80 (sub 75) OBJ File: 'Katana.blend'
# www.blender.org
mtllib Katana.mtl
o Cube
v -0.467123 -4.547821 -0.126109
v -0.126109 -4.547821 -0.467123
v 0.467123 -4.547821 0.126109
v 0.126109 -4.547821 0.467123
v -0.126109 -4.547821 0.467123
v -0.467123 -4.547821 0.126109
v 0.126109 -4.547821 -0.467123
v 0.467123 -4.547821 -0.126109
v 0.000000 2.000000 0.927970
v -0.626961 2.000000 0.000000
v 0.626961 2.000000 -0.000000
v -0.000000 2.000000 -0.927970
v -3.000000 1.000000 1.000000
v -3.000000 1.000000 -1.000000
v -3.000000 1.312796 1.000000
v -3.000000 1.312796 -1.000000
v -1.000000 1.000000 -3.000000
v 1.000000 1.000000 -3.000000
v -1.000000 1.312796 -3.000000
v 1.000000 1.312796 -3.000000
v 3.000000 1.000000 -1.000000
v 3.000000 1.000000 1.000000
v 3.000000 1.312796 -1.000000
v 3.000000 1.312796 1.000000
v 1.000000 1.000000 3.000000
v -1.000000 1.000000 3.000000
v 1.000000 1.312796 3.000000
v -1.000000 1.312796 3.000000
v 1.000000 1.312796 1.000000
v -1.000000 1.312796 1.000000
v 1.000000 1.312796 -1.000000
v -1.000000 1.312796 -1.000000
v 0.000000 18.309435 0.927970
v -0.626961 18.309435 0.000000
v 0.626961 18.309435 -0.000000
v -0.000000 18.309435 -0.927970
v 0.000000 25.552332 0.927970
v -0.626961 25.552332 0.000000
v 0.626961 25.552332 -0.000000
v -0.000000 25.552332 -0.927970
v 0.000000 26.990330 1.522409
v -0.087739 26.882240 0.999320
v 0.069238 26.882240 0.999320
v -0.000000 26.882240 -0.226019
v -3.000000 1.312796 1.000000
v -3.000000 1.000000 1.000000
v -3.000000 1.000000 -1.000000
v -3.000000 1.312796 -1.000000
v 3.000000 1.000000 -1.000000
v 3.000000 1.312796 -1.000000
v 1.000000 1.312796 3.000000
v 1.000000 1.000000 3.000000
v -3.000000 1.312796 1.049126
v -1.049126 1.312796 3.000000
v -1.049126 1.000000 3.000000
v -3.000000 1.000000 1.049126
v -3.000000 1.000000 -1.049126
v -1.049126 1.000000 -3.000000
v -1.049126 1.312796 -3.000000
v -3.000000 1.312796 -1.049126
v 1.049126 1.000000 -3.000000
v 3.000000 1.000000 -1.049126
v 3.000000 1.312796 -1.049126
v 1.049126 1.312796 -3.000000
v 1.049126 1.312796 3.000000
v 3.000000 1.312796 1.049126
v 3.000000 1.000000 1.049126
v 1.049126 1.000000 3.000000
v 1.000000 1.000000 -0.269970
v 0.269970 1.000000 -1.000000
v 1.000000 1.000000 -1.730030
v 1.730030 1.000000 -1.000000
v 1.000000 1.312746 -1.000000
v 1.730030 1.000000 -1.000000
v 0.269970 -4.000000 -1.000000
v 1.000000 -4.000000 -0.269970
v 0.269970 1.000000 1.000000
v 1.000000 1.000000 0.269970
v 1.730030 1.000000 1.000000
v 1.000000 1.000000 1.730030
v 1.000000 1.312746 1.000000
v 1.000000 1.000000 1.730030
v 1.000000 -4.000000 0.269970
v 0.269970 -4.000000 1.000000
v -0.269970 1.000000 -1.000000
v -1.000000 1.000000 -0.269970
v -1.730030 1.000000 -1.000000
v -1.000000 1.312746 -1.000000
v -1.730030 1.000000 -1.000000
v -1.000000 1.000000 -1.730030
v -1.000000 -4.000000 -0.269970
v -0.269970 -4.000000 -1.000000
v -1.000000 1.000000 0.269970
v -0.269970 1.000000 1.000000
v -1.000000 1.000000 1.730030
v -1.730030 1.000000 1.000000
v -1.000000 1.312746 1.000000
v -1.730030 1.000000 1.000000
v -0.269970 -4.000000 1.000000
v -1.000000 -4.000000 0.269970
vt 0.375000 0.500000
vt 0.375000 0.500000
vt 0.375000 0.500000
vt 0.375000 0.500000
vt 0.375000 0.500000
vt 0.625000 0.250000
vt 0.625000 0.250000
vt 0.625000 0.250000
vt 0.625000 0.250000
vt 0.625000 0.250000
vt 0.625000 0.750000
vt 0.625000 0.658746
vt 0.625000 0.591254
vt 0.625000 0.500000
vt 0.625000 0.500000
vt 0.625000 0.750000
vt 0.375000 0.341254
vt 0.625000 0.341254
vt 0.625000 0.408746
vt 0.375000 0.408746
vt 0.875000 0.750000
vt 0.875000 0.658746
vt 0.875000 0.591254
vt 0.875000 0.500000
vt 0.875000 0.500000
vt 0.875000 0.750000
vt 0.125000 0.591254
vt 0.375000 0.591254
vt 0.375000 0.658746
vt 0.125000 0.658746
vt 0.592087 0.032913
vt 0.592087 0.217087
vt 0.592087 0.217087
vt 0.592087 0.032913
vt 0.375000 0.500000
vt 0.375000 0.500000
vt 0.375000 0.250000
vt 0.625000 0.250000
vt 0.625000 0.250000
vt 0.375000 0.250000
vt 0.875000 0.500000
vt 0.875000 0.500000
vt 0.875000 0.500000
vt 0.875000 0.500000
vt 0.625000 0.500000
vt 0.625000 0.750000
vt 0.625000 0.000000
vt 0.625000 0.000000
vt 0.625000 0.250000
vt 0.625000 0.500000
vt 0.625000 0.500000
vt 0.625000 0.500000
vt 0.625000 0.500000
vt 0.625000 0.500000
vt 0.625000 0.500000
vt 0.875000 0.500000
vt 0.875000 0.500000
vt 0.875000 0.500000
vt 0.875000 0.500000
vt 0.875000 0.750000
vt 0.375000 0.000000
vt 0.375000 0.000000
vt 0.375000 0.000000
vt 0.375000 0.000000
vt 0.375000 0.000000
vt 0.375000 0.500000
vt 0.375000 0.500000
vt 0.375000 0.500000
vt 0.625000 0.000000
vt 0.375000 0.750000
vt 0.375000 0.750000
vt 0.875000 0.750000
vt 0.875000 0.750000
vt 0.875000 0.750000
vt 0.875000 0.750000
vt 0.375000 0.250000
vt 0.375000 0.000000
vt 0.625000 0.500000
vt 0.625000 0.500000
vt 0.625000 0.500000
vt 0.625000 0.250000
vt 0.625000 0.250000
vt 0.625000 0.250000
vt 0.375000 0.750000
vt 0.375000 0.750000
vt 0.375000 0.750000
vt 0.375000 0.750000
vt 0.375000 0.750000
vt 0.407913 0.217087
vt 0.407913 0.032913
vt 0.407913 0.032913
vt 0.592087 0.032913
vt 0.407913 0.032913
vt 0.407913 0.217087
vt 0.592087 0.217087
vt 0.592087 0.217087
vt 0.592087 0.032913
vt 0.407913 0.217087
vt 0.407913 0.032913
vt 0.407913 0.217087
vt 0.625000 0.250000
vt 0.625000 0.250000
vt 0.625000 0.250000
vt 0.875000 0.500000
vt 0.375000 0.841254
vt 0.466254 0.750000
vt 0.533746 0.750000
vt 0.625000 0.841254
vt 0.625000 0.908746
vt 0.533746 1.000000
vt 0.466254 1.000000
vt 0.375000 0.908746
vt 0.625000 0.500000
vt 0.625000 0.500000
vt 0.625000 0.000000
vt 0.625000 0.000000
vt 0.625000 0.000000
vt 0.875000 0.500000
vt 0.875000 0.500000
vt 0.875000 0.500000
vt 0.875000 0.500000
vt 0.375000 0.750000
vt 0.375000 0.408746
vt 0.375000 0.341254
vt 0.875000 0.750000
vt 0.375000 0.250000
vt 0.375000 0.250000
vt 0.375000 0.250000
vt 0.375000 0.591254
vt 0.375000 0.658746
vt 0.625000 0.250000
vt 0.625000 0.250000
vt 0.625000 0.500000
vt 0.875000 0.750000
vt 0.625000 0.250000
vt 0.625000 0.250000
vt 0.375000 0.500000
vt 0.375000 0.500000
vt 0.625000 0.250000
vt 0.625000 0.250000
vt 0.875000 0.500000
vt 0.625000 0.500000
vt 0.125000 0.500000
vt 0.375000 0.250000
vt 0.625000 0.591254
vt 0.625000 0.500000
vt 0.625000 0.658746
vt 0.625000 0.658746
vt 0.625000 0.591254
vt 0.125000 0.591254
vt 0.125000 0.500000
vt 0.625000 0.500000
vt 0.375000 0.658746
vt 0.375000 0.591254
vt 0.375000 0.250000
vt 0.125000 0.658746
vn 0.0000 0.0000 1.0000
vn 1.0000 0.0000 0.0000
vn 0.0000 -1.0000 0.0000
vn -0.8286 0.0000 -0.5598
vn 0.0000 1.0000 0.0000
vn -1.0000 0.0000 0.0000
vn 0.0000 0.0000 -1.0000
vn -0.2877 0.5040 0.8144
vn 0.7504 0.6412 0.1607
vn -0.7504 0.6412 -0.1607
vn 0.2877 0.5040 -0.8144
vn 0.8286 0.0000 -0.5598
vn -0.8286 0.0000 0.5598
vn 0.8286 0.0000 0.5598
vn -0.8831 0.3665 -0.2931
vn 0.0000 0.9981 -0.0617
vn -0.8916 -0.0827 0.4453
vn 0.8846 0.3684 -0.2860
vn 0.8973 -0.0701 0.4357
vn 0.0000 -0.6973 0.7168
vn -0.7071 0.0000 0.7071
vn -0.7071 0.0000 -0.7071
vn 0.7071 0.0000 -0.7071
vn 0.7071 0.0000 0.7071
vn 0.0000 -0.6973 -0.7168
vn 0.5325 -0.6579 -0.5325
vn -0.5325 -0.6579 -0.5325
vn -0.7168 -0.6973 0.0000
vn 0.5325 -0.6579 0.5325
vn 0.7168 -0.6973 0.0000
vn -0.5325 -0.6579 0.5325
usemtl Material
s off
f 31/1/1 73/2/1 72/3/1 49/4/1 50/5/1
f 82/6/2 81/7/2 29/8/2 27/9/2 25/10/2
f 87/11/3 86/12/3 93/13/3 98/14/3 13/15/3 14/16/3
f 84/17/1 77/18/1 94/19/1 99/20/1
f 71/21/3 70/22/3 85/23/3 90/24/3 17/25/3 18/26/3
f 76/27/2 69/28/2 78/29/2 83/30/2
f 12/31/4 10/32/4 34/33/4 36/34/4
f 50/5/2 49/4/2 62/35/2 63/36/2
f 29/37/5 30/38/5 28/39/5 27/40/5
f 17/25/3 90/24/3 89/41/3 47/42/3 57/43/3 58/44/3
f 14/16/6 13/15/6 15/45/6 16/46/6
f 30/38/5 32/47/5 16/48/5 15/49/5
f 96/50/3 95/51/3 26/52/3 55/53/3 56/54/3 46/55/3
f 89/41/1 88/56/1 32/57/1 48/58/1 47/42/1
f 18/26/7 17/25/7 19/59/7 20/60/7
f 20/61/5 31/62/5 50/63/5 63/64/5 64/65/5
f 74/66/7 73/2/7 31/1/7 23/67/7 21/68/7
f 32/47/5 31/62/5 20/61/5 19/69/5
f 22/70/2 21/68/2 23/67/2 24/71/2
f 72/72/3 71/21/3 18/26/3 61/73/3 62/74/3 49/75/3
f 95/51/3 94/19/3 77/18/3 82/6/3 25/10/3 26/52/3
f 31/62/5 29/37/5 24/76/5 23/77/5
f 26/52/1 25/10/1 27/9/1 28/78/1
f 98/14/1 97/79/1 30/80/1 15/45/1 13/15/1
f 29/8/6 81/7/6 80/81/6 52/82/6 51/83/6
f 80/84/3 79/85/3 22/70/3 67/86/3 68/87/3 52/88/3
f 9/89/8 10/32/8 30/38/8 29/37/8
f 11/90/9 9/89/9 29/37/9 31/62/9
f 10/32/10 12/31/10 32/47/10 30/38/10
f 12/31/11 11/90/11 31/62/11 32/47/11
f 35/91/12 36/34/12 40/92/12 39/93/12
f 10/32/13 9/89/13 33/94/13 34/33/13
f 11/90/12 12/31/12 36/34/12 35/91/12
f 9/89/14 11/90/14 35/91/14 33/94/14
f 40/92/15 38/95/15 42/96/15 44/97/15
f 33/94/14 35/91/14 39/93/14 37/98/14
f 36/34/4 34/33/4 38/95/4 40/92/4
f 34/33/13 33/94/13 37/98/13 38/95/13
f 43/99/16 44/97/16 42/96/16 41/100/16
f 38/95/17 37/98/17 41/100/17 42/96/17
f 39/93/18 40/92/18 44/97/18 43/99/18
f 37/98/19 39/93/19 43/99/19 41/100/19
f 28/39/5 30/38/5 45/101/5 53/102/5 54/103/5
f 19/59/7 17/25/7 58/44/7 59/104/7
f 1/105/3 2/106/3 7/107/3 8/108/3 3/109/3 4/110/3 5/111/3 6/112/3
f 45/113/6 46/55/6 56/54/6 53/114/6
f 30/80/7 97/79/7 96/50/7 46/55/7 45/113/7
f 32/47/5 19/69/5 59/115/5 60/116/5 48/117/5
f 47/42/6 48/58/6 60/118/6 57/43/6
f 32/57/7 88/56/7 87/119/7 14/120/7 16/121/7
f 79/85/3 78/29/3 69/28/3 74/66/3 21/68/3 22/70/3
f 22/70/2 24/71/2 66/122/2 67/86/2
f 84/17/20 99/20/20 5/123/20 4/124/20
f 18/26/7 20/60/7 64/125/7 61/73/7
f 24/76/5 29/37/5 51/126/5 65/127/5 66/128/5
f 100/129/6 93/13/6 86/12/6 91/130/6
f 51/83/1 52/82/1 68/131/1 65/132/1
f 53/114/21 56/54/21 55/53/21 54/133/21
f 57/43/22 60/118/22 59/104/22 58/44/22
f 61/73/23 64/125/23 63/134/23 62/74/23
f 65/132/24 68/131/24 67/135/24 66/136/24
f 26/52/1 28/78/1 54/133/1 55/53/1
f 69/28/3 70/137/3 71/138/3 72/3/3 73/2/3 74/66/3
f 77/18/3 78/139/3 79/140/3 80/81/3 81/7/3 82/6/3
f 85/23/3 86/141/3 87/119/3 88/56/3 89/41/3 90/24/3
f 93/13/3 94/142/3 95/51/3 96/50/3 97/79/3 98/14/3
f 69/28/23 76/27/23 75/143/23 70/137/23
f 99/20/21 94/19/21 93/13/21 100/129/21
f 77/18/24 84/17/24 83/144/24 78/139/24
f 85/23/22 92/145/22 91/146/22 86/141/22
f 92/145/7 85/23/7 70/22/7 75/147/7
f 92/145/25 75/147/25 7/148/25 2/149/25
f 75/143/26 76/27/26 8/150/26 7/151/26
f 91/146/27 92/145/27 2/149/27 1/152/27
f 100/129/28 91/130/28 1/153/28 6/154/28
f 83/144/29 84/17/29 4/124/29 3/155/29
f 76/27/30 83/30/30 3/156/30 8/150/30
f 99/20/31 100/129/31 6/154/31 5/123/31
